<svg xmlns="http://www.w3.org/2000/svg" viewBox="0 0 525.81 227.94"><defs><style>.cls-1{fill:#4dbddf;}.cls-2{fill:none;stroke:#ff8f85;stroke-linecap:round;stroke-miterlimit:10;stroke-width:9.27px;}.cls-3{fill:#ff8f85;}</style></defs><title>Logotipo_yirai</title><g id="Capa_2" data-name="Capa 2"><g id="SLIDE_2" data-name="SLIDE 2"><path class="cls-1" d="M256.5,62.42,193.41,217.14h-18l20.65-50.68-42.25-104h19.31L206,147.65l32.5-85.23Z"/><path class="cls-1" d="M296.23,62.48l-.7,104.29-17.39-.12.7-104.29Z"/><path class="cls-1" d="M348.73,67.29q8.59-4.86,21-4.86V80h-4.64q-29.58,0-29.58,31v55.69h-17.6q0-52.14,0-104.29H335.5q0,9.26,0,18.51A33.08,33.08,0,0,1,348.73,67.29Z"/><path class="cls-1" d="M390.49,87a45.41,45.41,0,0,1,17.23-18.15,47.26,47.26,0,0,1,24.42-6.45q13.26,0,23,5.71A38.15,38.15,0,0,1,469.74,82.5l.07-19.82,17.12-.08q-.1,51.81-.22,103.6l-16.9,0-.07-20a39.54,39.54,0,0,1-14.84,14.65q-9.86,5.81-22.95,5.8a45.78,45.78,0,0,1-24.32-6.63,46.48,46.48,0,0,1-17.14-18.61,58,58,0,0,1-6.27-27.27Q384.22,98.72,390.49,87Zm74.64,7.46a32.61,32.61,0,0,0-12.44-13,35.3,35.3,0,0,0-34.37-.09A32.1,32.1,0,0,0,406,94.3a41.05,41.05,0,0,0-4.61,19.9q0,11.61,4.61,20.17a32.56,32.56,0,0,0,12.35,13.09A33.38,33.38,0,0,0,435.46,152a33.92,33.92,0,0,0,17.23-4.51,32.43,32.43,0,0,0,12.44-13.09,41.58,41.58,0,0,0,4.61-20A41.05,41.05,0,0,0,465.13,94.48Z"/><path class="cls-1" d="M525.81,62.42V166.71H508.43V62.42Z"/><path class="cls-2" d="M66.53,155.7v27.49"/><path class="cls-3" d="M69.81,159.7l-6.91,0L33.77,126.85a4.63,4.63,0,0,1,6.93-6.15l25.69,28.94L92.2,121a4.64,4.64,0,1,1,6.89,6.21Z"/><path class="cls-3" d="M21.78,118.14c1.34-1.84,2.43-3.25,3-4l.37-.46,3.92-5h-.33C25.09,105.05,10.82,89.82,11,67.57c.27-27.16,22-56.51,53.53-57.16,31.66-.65,53.5,28.11,54.64,54.94.93,21.92-12.16,37.82-16,42.11,3,3.73,4.77,5.85,4.85,6l.55.73.11.14,0,.06c.53.71,1.24,1.67,2.07,2.83H111c4.34-4.87,20.44-24.09,19.23-50.79-1.46-32.29-27.85-67-66-66.37C26.32.63.23,35.85,0,68.53c-.18,26.78,17.05,45.18,21.44,49.61Z"/><path class="cls-1" d="M118.08,126.13c-1.26-1.92-2.71-4-2.71-4-1.34-1.91-2.49-3.46-3.26-4.49l0-.06-.12-.15-.58-.77c-.27-.35-19.08-23.11-44.78-54.17L22.29,116.19l-.4.48c-.71.87-2.17,2.67-3.92,5,0,0-1.42,1.87-2.63,3.66-4.18,6.14-13.73,20.18-13.84,39.54A62.22,62.22,0,0,0,44.11,224a66.62,66.62,0,0,0,34,2.91,65.38,65.38,0,0,0,35.3-19.52c3.51-3.72,18.34-19.91,18-42.86C131.35,164.56,131.39,146.4,118.08,126.13Zm-11.62,73.92a55.9,55.9,0,0,1-30.1,16.48,57.33,57.33,0,0,1-29-2.46,54.32,54.32,0,0,1-25.56-18.13,53.07,53.07,0,0,1-10.77-31.83c.1-16.34,8.24-28.2,11.8-33.39,1-1.51,2.25-3.08,2.25-3.08,1.49-2,2.73-3.5,3.33-4.23.18-.2.31-.36.34-.4L66.56,77.67c21.91,26.23,38,45.46,38.18,45.75l.5.65.1.12,0,.06c.66.86,1.64,2.17,2.79,3.79,0,0,1.23,1.74,2.31,3.36,11.35,17.12,11.31,32.45,11.31,32.45C122.1,183.23,109.46,196.9,106.46,200.05Z"/><path class="cls-3" d="M66.37,103.72a10.14,10.14,0,1,0,10.12,10.14A10.13,10.13,0,0,0,66.37,103.72Zm0,16.16a6,6,0,1,1,6-6A6,6,0,0,1,66.37,119.88Z"/></g></g></svg>